# xmcd CD database file
#
# Track frame offsets:
#	150
#	14212
#	28377
#	41775
#	53470
#	65847
#	76322
#	91720
#	104870
#	117257
#	129535
#	143145
#	154690
#	167530
#	181600
#	192617
#	205835
#	224557
#	242617
#	260852
#	275145
#	289432
#	305730
#	317702
#	333852
#
# Disc length: 4678 seconds
#
# Revision: 0
# Processed by: cddbd v1.5.1PL2 Copyright (c) Steve Scherf et al.
# Submitted via: CDex 1.51
#
DISCID=8a124419
DTITLE=Don Williams - The Definitive Collection
DYEAR=2004
DGENRE=Country
TTITLE0=Come Early Morning
TTITLE1=Amanda
TTITLE2=I Wouldn't Want To Live If You Didn't Want Me
TTITLE3=The Ties That Bind
TTITLE4=You're My Best Friend
TTITLE5=Turn Out The Lights and Love Me Tonight
TTITLE6=Till The Rivers All Run Dry
TTITLE7=Say It Again
TTITLE8=She Never Knew Me
TTITLE9=Some Broken Hearts Never Mend
TTITLE10=I'm Just A Country Boy
TTITLE11=I've Got A Winner In You
TTITLE12=Rake And Ramblin' Man
TTITLE13=Tulsa Time
TTITLE14=It Must Be Love
TTITLE15=Love Me Over Again
TTITLE16=Good Ole Boys Like Me
TTITLE17=I Believe In You
TTITLE18=Lord I Hope This Day Is Good
TTITLE19=Listen To The Radio
TTITLE20=If Hollywood Don't need You
TTITLE21=Love Is On A Roll
TTITLE22=Nobody But You
TTITLE23=That's The Thing About Love
TTITLE24=Heartbeat In The Darkness
EXTD=YEAR: 2004
EXTT0=
EXTT1=
EXTT2=
EXTT3=
EXTT4=
EXTT5=
EXTT6=
EXTT7=
EXTT8=
EXTT9=
EXTT10=
EXTT11=
EXTT12=
EXTT13=
EXTT14=
EXTT15=
EXTT16=
EXTT17=
EXTT18=
EXTT19=
EXTT20=
EXTT21=
EXTT22=
EXTT23=
EXTT24=
PLAYORDER=
